<!DOCTYPE svg PUBLIC "-//W3C//DTD SVG 20010904//EN" "http://www.w3.org/TR/2001/REC-SVG-20010904/DTD/svg10.dtd">
<svg version="1.0" xmlns="http://www.w3.org/2000/svg" width="397px" height="397px" viewBox="0 0 3970 3970" preserveAspectRatio="xMidYMid meet">
<g id="layer101" fill="#0f130f" stroke="none">
 <path d="M0 1985 l0 -1985 1985 0 1985 0 0 1985 0 1985 -1985 0 -1985 0 0 -1985z"/>
 </g>
<g id="layer102" fill="#bdd8c1" stroke="none">
 <path d="M0 3450 l0 -520 448 0 448 0 21 187 c23 209 19 252 -30 317 -38 49 -128 91 -197 91 -90 0 -172 -63 -103 -79 139 -34 179 -203 67 -280 -52 -35 -135 -36 -185 -3 -77 50 -100 162 -53 255 30 61 69 96 143 130 46 21 63 24 135 20 99 -6 165 -36 223 -102 64 -72 70 -111 49 -296 -9 -85 -20 -174 -23 -197 l-6 -43 480 0 480 0 7 30 c8 40 69 103 129 133 l48 24 -53 26 c-59 29 -86 54 -115 107 -19 34 -21 35 -81 33 -53 -2 -63 1 -73 18 -5 11 -7 29 -4 39 6 17 16 20 75 20 l68 0 12 35 c15 46 84 105 151 130 74 28 212 28 293 0 70 -24 140 -82 158 -130 l12 -35 73 0 73 0 0 -39 0 -39 -72 0 c-71 0 -71 0 -89 -33 -23 -46 -64 -82 -124 -113 l-50 -25 30 -11 c76 -27 141 -87 152 -140 l5 -30 724 0 724 0 0 520 0 520 -1985 0 -1985 0 0 -520z"/>
 <path d="M2200 3489 c-32 -13 -88 -66 -106 -101 l-15 -28 141 0 140 0 0 35 c0 72 -88 124 -160 94z"/>
 <path d="M2064 3278 c-11 -17 10 -80 32 -97 62 -49 160 -27 210 48 15 23 25 44 22 46 -8 9 -259 11 -264 3z"/>
 <path d="M2200 3069 c-44 -18 -120 -103 -120 -134 0 -3 63 -5 140 -5 l140 0 0 40 c0 77 -85 130 -160 99z"/>
 <path d="M0 2706 l0 -186 130 0 c116 0 131 2 136 18 3 9 22 50 42 91 43 88 133 183 210 222 36 19 46 28 34 31 -9 2 -137 6 -284 7 l-268 3 0 -186z"/>
 <path d="M753 2880 c-95 -10 -188 -54 -249 -117 -50 -50 -98 -142 -110 -205 l-6 -38 65 0 65 0 31 55 c31 55 122 135 154 135 23 0 22 -6 -13 -50 -32 -40 -60 -99 -60 -125 0 -12 18 -15 108 -15 l109 0 21 177 c12 98 20 178 19 179 -10 8 -75 10 -134 4z"/>
 <path d="M1046 2883 c-3 -3 14 -18 37 -33 86 -54 163 -169 189 -280 l11 -50 309 0 c294 0 308 1 308 19 0 22 45 90 73 111 11 8 39 25 61 36 l40 21 -37 12 c-46 15 -111 79 -128 124 -10 28 -19 37 -45 42 -41 7 -810 5 -818 -2z"/>
 <path d="M2078 2882 c-35 -7 -10 -109 30 -131 30 -16 110 -13 140 5 31 18 79 80 84 109 3 19 -3 20 -117 20 -66 1 -128 -1 -137 -3z"/>
 <path d="M2539 2883 c-9 -2 -19 -17 -22 -33 -9 -41 -60 -95 -117 -123 l-50 -25 55 -27 c57 -28 96 -69 112 -120 l10 -30 721 -3 722 -2 0 185 0 185 -707 -1 c-390 -1 -715 -4 -724 -6z"/>
 <path d="M930 2863 c0 -5 -9 -80 -20 -167 -11 -88 -20 -163 -20 -168 0 -4 61 -8 136 -8 l137 0 -5 68 c-6 83 -38 158 -86 205 -54 51 -142 94 -142 70z"/>
 <path d="M2182 2653 c-31 -15 -102 -100 -102 -122 0 -8 44 -11 140 -11 l140 0 0 35 c0 96 -86 144 -178 98z"/>
 <path d="M0 2295 l0 -185 149 0 150 0 -19 43 c-28 64 -43 170 -36 253 l7 74 -126 0 -125 0 0 -185z"/>
 <path d="M380 2421 c0 -78 30 -173 80 -249 l40 -62 94 0 95 0 -50 47 c-82 77 -129 178 -129 281 l0 42 -65 0 -65 0 0 -59z"/>
 <path d="M630 2455 c0 -56 59 -135 127 -169 56 -28 59 -25 71 78 7 52 12 100 12 105 0 7 -38 11 -105 11 l-105 0 0 -25z"/>
 <path d="M885 2468 c-4 -15 -25 -174 -25 -195 0 -21 79 -16 135 11 72 33 155 133 155 186 0 16 -259 14 -265 -2z"/>
 <path d="M1286 2458 c-3 -13 -6 -35 -6 -50 0 -74 -77 -202 -158 -263 l-45 -35 1447 0 1446 0 0 185 0 185 -721 -2 -721 -3 -13 -39 c-18 -51 -58 -91 -124 -123 -45 -22 -73 -28 -149 -31 -171 -8 -286 44 -331 147 l-22 51 -298 0 -299 0 -6 -22z"/>
 <path d="M2064 2465 c-11 -28 7 -87 33 -111 21 -19 37 -24 79 -24 46 0 59 5 89 32 30 26 75 93 75 113 0 3 -61 5 -135 5 -112 0 -137 -3 -141 -15z"/>
 <path d="M0 1880 l0 -190 326 0 327 0 -119 123 c-66 67 -141 152 -168 190 l-48 67 -159 0 -159 0 0 -190z"/>
 <path d="M550 2062 c0 -10 208 -217 214 -211 4 4 26 171 26 202 0 15 -12 17 -120 17 -66 0 -120 -3 -120 -8z"/>
 <path d="M837 2063 c-3 -5 -11 -63 -18 -131 l-13 -123 59 -59 59 -60 1523 0 1523 0 0 190 0 190 -1564 0 c-861 0 -1567 -3 -1569 -7z"/>
 <path d="M0 1465 l0 -185 361 0 361 0 -6 44 c-4 24 0 101 9 171 15 121 15 128 -2 141 -14 11 -91 13 -370 14 l-353 0 0 -185z"/>
 <path d="M1021 1588 c58 -72 113 -180 130 -256 l12 -52 1404 0 1403 0 0 185 0 185 -1500 0 -1500 0 51 -62z"/>
 <path d="M777 1566 c-12 -31 -7 -145 9 -217 l16 -69 124 0 125 0 -32 47 c-18 26 -78 94 -134 152 -82 84 -103 101 -108 87z"/>
 <path d="M0 620 l0 -620 1985 0 1985 0 0 620 0 620 -1398 0 -1399 0 -6 -122 c-6 -126 -30 -236 -67 -308 -23 -46 -36 -51 -81 -36 -53 19 -104 61 -159 135 -66 86 -106 169 -127 259 l-17 72 -358 0 -358 0 0 -620z m1856 589 c15 -24 -48 -129 -78 -129 -7 0 -32 -9 -55 -20 -52 -23 -56 -9 -10 34 17 17 47 52 64 79 32 46 63 61 79 36z m488 -19 c138 -35 173 -36 316 -11 91 16 109 16 133 4 33 -17 34 -28 2 -49 -21 -14 -50 -15 -212 -10 -258 7 -301 11 -352 30 -35 14 -50 15 -78 5 -44 -14 -51 -7 -19 19 15 11 26 25 26 31 0 18 59 12 184 -19z m-376 -106 c2 -1 -4 -16 -12 -32 -12 -23 -25 -32 -56 -37 -23 -4 -44 -4 -48 -1 -3 4 14 26 38 51 36 37 46 42 59 33 9 -7 17 -13 19 -14z m400 14 c14 -18 -1 -51 -32 -71 -14 -9 -28 -17 -31 -17 -12 0 -4 37 15 68 21 35 32 39 48 20z m145 -19 c47 -24 57 -35 57 -65 0 -26 -18 -42 -56 -50 -29 -6 -29 -5 -26 39 3 30 -2 53 -13 71 -21 32 -16 32 38 5z m-485 -47 c21 -14 -2 -57 -37 -72 -18 -7 -34 -10 -37 -7 -10 10 39 87 55 87 3 0 12 -4 19 -8z m76 -38 c26 -10 18 -31 -15 -43 -54 -19 -62 -15 -44 19 15 30 29 35 59 24z m343 -55 c13 -5 36 -6 52 -3 26 6 32 2 55 -34 14 -22 28 -51 31 -65 4 -13 18 -30 32 -36 33 -15 25 -34 -18 -43 -39 -8 -201 31 -196 47 2 5 23 11 46 13 41 3 42 4 39 35 -3 28 -9 34 -45 47 -40 13 -44 13 -65 -6 -28 -25 -102 -58 -117 -53 -7 3 12 29 41 60 49 52 56 56 88 51 19 -2 45 -9 57 -13z m-341 -37 c6 -4 15 -59 21 -122 7 -83 18 -134 38 -183 15 -37 24 -74 22 -81 -7 -19 -97 -27 -113 -11 -16 15 -122 50 -130 43 -3 -3 26 -26 63 -51 37 -25 81 -59 96 -75 26 -27 27 -31 12 -46 -11 -10 -33 -16 -65 -16 -47 0 -49 1 -48 28 1 34 -13 62 -63 126 -42 52 -47 66 -26 66 8 0 19 16 25 37 11 36 9 53 -8 53 -5 0 -21 5 -37 11 -22 8 -24 12 -13 19 8 6 27 10 43 10 26 0 27 2 27 47 0 60 20 45 27 -19 4 -35 11 -49 34 -64 36 -23 37 -34 4 -34 -36 0 -36 -46 1 -60 14 -6 27 -10 29 -10 11 0 16 73 10 144 l-6 82 -47 14 c-26 8 -52 16 -58 17 -5 2 -18 -21 -27 -51 -14 -44 -24 -57 -51 -70 -19 -9 -40 -16 -48 -16 -7 0 -30 -9 -51 -20 -44 -24 -47 -24 -47 -5 0 8 20 28 44 44 52 36 90 95 81 128 -6 27 13 63 36 63 8 0 49 -11 89 -25 40 -14 77 -25 81 -25 3 0 12 14 19 30 13 31 18 34 36 22z m359 -147 c43 -3 188 -48 203 -62 17 -16 7 -33 -20 -33 -19 0 -20 -4 -13 -77 8 -99 20 -144 45 -176 11 -14 20 -28 20 -31 0 -3 -19 -10 -42 -16 -40 -11 -72 -10 -112 6 -17 6 -18 2 -15 -57 l4 -64 -39 -3 c-34 -3 -38 -1 -31 15 16 38 18 115 4 124 -34 21 -49 11 -49 -36 l0 -45 -45 0 c-33 0 -45 4 -45 15 0 8 7 15 15 15 18 0 34 72 17 78 -8 2 -7 9 4 19 9 10 14 29 12 52 -4 52 -42 55 -115 6 -76 -50 -97 -43 -44 15 22 25 41 52 41 61 0 9 19 38 42 64 l42 47 57 -6 c32 -3 76 -15 98 -27 33 -17 44 -19 56 -9 30 25 15 39 -67 66 -60 19 -105 26 -160 26 -43 0 -78 4 -78 8 0 4 10 15 23 24 18 13 36 15 92 10 39 -4 84 -8 100 -9z m-588 -297 c104 -68 125 -108 58 -108 -19 0 -37 -4 -40 -10 -11 -18 -33 -11 -28 9 7 27 -14 85 -37 106 -21 19 -26 35 -11 35 6 0 32 -14 58 -32z"/>
 <path d="M2330 580 c0 -35 3 -40 24 -40 16 0 26 7 30 23 12 46 8 57 -24 57 -28 0 -30 -2 -30 -40z"/>
 <path d="M2424 596 c-10 -25 0 -48 24 -57 22 -8 23 -7 20 29 -3 39 -32 58 -44 28z"/>
 <path d="M2526 582 c-16 -3 -18 -11 -12 -80 8 -94 29 -125 41 -60 11 61 11 126 0 136 -6 5 -18 7 -29 4z"/>
 <path d="M2432 473 c4 -37 38 -45 38 -10 0 21 -16 37 -36 37 -3 0 -4 -12 -2 -27z"/>
 <path d="M836 1218 c9 -31 103 -174 144 -221 37 -42 85 -71 105 -63 38 14 47 179 14 257 l-21 49 -125 0 c-124 0 -124 0 -117 -22z"/>
 </g>

</svg>